<mxfile host="app.diagrams.net" modified="2021-02-27T19:33:52.337Z" agent="5.0 (Macintosh; Intel Mac OS X 10_15_7) AppleWebKit/537.36 (KHTML, like Gecko) Chrome/88.0.4324.192 Safari/537.36" etag="cFfZwYPQbZF1bdNet4sY" version="14.4.2" type="github">
  <diagram id="sw5iS7t5JVyN_Rd6FBOv" name="Page-1">
    <mxGraphModel dx="1186" dy="764" grid="1" gridSize="10" guides="1" tooltips="1" connect="1" arrows="1" fold="1" page="1" pageScale="1" pageWidth="850" pageHeight="1100" math="0" shadow="0">
      <root>
        <mxCell id="0" />
        <mxCell id="1" parent="0" />
      </root>
    </mxGraphModel>
  </diagram>
</mxfile>
